<svg width="48" height="64" viewBox="0 0 48 64" fill="none" xmlns="http://www.w3.org/2000/svg">
<path fill-rule="evenodd" clip-rule="evenodd" d="M40.5 3H4C3.44772 3 3 3.44772 3 4V60C3 60.5523 3.44772 61 4 61H44C44.5523 61 45 60.5523 45 60V7.5L48 10.5V60C48 62.2091 46.2091 64 44 64H4C1.79086 64 0 62.2091 0 60V4C0 1.79086 1.79086 0 4 0H37.5L40.5 3Z" fill="white"/>
<path d="M37.5 9.5V2.41421C37.5 1.52331 38.5771 1.07714 39.2071 1.70711L46.2929 8.79289C46.9229 9.42286 46.4767 10.5 45.5858 10.5H38.5C37.9477 10.5 37.5 10.0523 37.5 9.5Z" fill="white"/>
<line x1="9" y1="14" x2="18" y2="14" stroke="white" stroke-width="2"/>
<line x1="9" y1="14" x2="18" y2="14" stroke="white" stroke-width="2"/>
<line x1="24" y1="14" x2="36" y2="14" stroke="white" stroke-width="2"/>
<line x1="24" y1="14" x2="36" y2="14" stroke="white" stroke-width="2"/>
<line x1="9" y1="21" x2="24" y2="21" stroke="white" stroke-width="2"/>
<line x1="9" y1="21" x2="24" y2="21" stroke="white" stroke-width="2"/>
<line x1="30" y1="21" x2="39" y2="21" stroke="white" stroke-width="2"/>
<line x1="30" y1="21" x2="39" y2="21" stroke="white" stroke-width="2"/>
<line x1="9" y1="28" x2="39" y2="28" stroke="white" stroke-width="2"/>
<line x1="9" y1="28" x2="39" y2="28" stroke="white" stroke-width="2"/>
<line x1="9" y1="36" x2="35" y2="36" stroke="white" stroke-width="2"/>
<line x1="9" y1="36" x2="35" y2="36" stroke="white" stroke-width="2"/>
<line x1="9" y1="43" x2="28" y2="43" stroke="white" stroke-width="2"/>
<line x1="9" y1="43" x2="28" y2="43" stroke="white" stroke-width="2"/>
<line x1="32" y1="43" x2="38" y2="43" stroke="white" stroke-width="2"/>
<line x1="32" y1="43" x2="38" y2="43" stroke="white" stroke-width="2"/>
<line x1="9" y1="51" x2="38" y2="51" stroke="white" stroke-width="2"/>
<line x1="9" y1="51" x2="38" y2="51" stroke="white" stroke-width="2"/>
</svg>
