<svg width="82" height="59" viewBox="0 0 82 59" fill="none" xmlns="http://www.w3.org/2000/svg">
<path fill-rule="evenodd" clip-rule="evenodd" d="M0.5 8C0.5 3.58172 4.08172 0 8.5 0H73.5C77.9183 0 81.5 3.58172 81.5 8V51C81.5 55.4183 77.9183 59 73.5 59H8.5C4.08172 59 0.5 55.4183 0.5 51V8ZM15.5 12.5815V8H21.5V12.5815C24.4318 13.7683 26.5 16.6426 26.5 20C26.5 23.3574 24.4318 26.2317 21.5 27.4185L21.5 52H15.5L15.5 27.4185C12.5682 26.2317 10.5 23.3574 10.5 20C10.5 16.6426 12.5682 13.7683 15.5 12.5815ZM38.5 28.5815V8H44.5V28.5815C47.4318 29.7683 49.5 32.6426 49.5 36C49.5 39.3574 47.4318 42.2317 44.5 43.4185V52H38.5V43.4185C35.5682 42.2317 33.5 39.3574 33.5 36C33.5 32.6426 35.5682 29.7683 38.5 28.5815ZM61.5 20.5815V8H67.5V20.5815C70.4318 21.7683 72.5 24.6426 72.5 28C72.5 31.3574 70.4318 34.2317 67.5 35.4185V52H61.5V35.4185C58.5682 34.2317 56.5 31.3574 56.5 28C56.5 24.6426 58.5682 21.7683 61.5 20.5815Z" fill="white"/>
</svg>
