<svg width="82" height="59" viewBox="0 0 82 59" fill="none" xmlns="http://www.w3.org/2000/svg">
<path fill-rule="evenodd" clip-rule="evenodd" d="M8.5 0C4.08172 0 0.5 3.58172 0.5 8V27.5H17.1762L22.2728 17.6709C23.8856 14.5606 28.4342 14.8796 29.5971 18.1846L36.2491 37.0903L45.2033 22.6258C46.6581 20.2757 50.0012 20.0742 51.7279 22.2325L55.9419 27.5H66.5V33.5H54.9806C53.7655 33.5 52.6162 32.9476 51.8572 31.9988L48.8131 28.1938L39.1508 43.8022C37.382 46.6594 33.0918 46.1943 31.9765 43.0244L25.4715 24.5366L21.9431 31.3413C21.2554 32.6675 19.886 33.5 18.3921 33.5H0.5V51C0.5 55.4183 4.08172 59 8.5 59H73.5C77.9183 59 81.5 55.4183 81.5 51V8C81.5 3.58172 77.9183 0 73.5 0H8.5Z" fill="white"/>
</svg>
