<svg width="130" height="42" viewBox="0 0 130 42" fill="none" xmlns="http://www.w3.org/2000/svg">
<rect width="130" height="42" fill="white"/>
<path d="M31.4066 17C31.3384 16.1477 31.0188 15.483 30.4478 15.0057C29.8853 14.5284 29.0288 14.2898 27.8782 14.2898C27.1452 14.2898 26.5444 14.3793 26.0756 14.5582C25.6154 14.7287 25.2745 14.9631 25.0529 15.2614C24.8313 15.5597 24.7163 15.9006 24.7077 16.2841C24.6907 16.5994 24.7461 16.8849 24.8739 17.1406C25.0103 17.3878 25.2234 17.6136 25.5131 17.8182C25.8029 18.0142 26.1737 18.1932 26.6254 18.3551C27.0771 18.517 27.614 18.6619 28.2362 18.7898L30.3839 19.25C31.8327 19.5568 33.0728 19.9616 34.104 20.4645C35.1353 20.9673 35.979 21.5597 36.6353 22.2415C37.2915 22.9148 37.7731 23.6733 38.0799 24.517C38.3952 25.3608 38.5572 26.2812 38.5657 27.2784C38.5572 29 38.1268 30.4574 37.2745 31.6506C36.4222 32.8438 35.2035 33.7514 33.6183 34.3736C32.0415 34.9957 30.1452 35.3068 27.9293 35.3068C25.6538 35.3068 23.668 34.9702 21.9719 34.2969C20.2844 33.6236 18.9719 32.5881 18.0344 31.1903C17.1055 29.7841 16.6367 27.9858 16.6282 25.7955H23.3782C23.4208 26.5966 23.6211 27.2699 23.979 27.8153C24.337 28.3608 24.8398 28.7741 25.4876 29.0554C26.1438 29.3366 26.9237 29.4773 27.8271 29.4773C28.5856 29.4773 29.2205 29.3835 29.7319 29.196C30.2433 29.0085 30.631 28.7486 30.8952 28.4162C31.1594 28.0838 31.2958 27.7045 31.3043 27.2784C31.2958 26.8778 31.1637 26.5284 30.908 26.2301C30.6609 25.9233 30.2518 25.6506 29.6808 25.4119C29.1097 25.1648 28.3384 24.9347 27.3668 24.7216L24.7589 24.1591C22.4407 23.6562 20.6126 22.8168 19.2745 21.6406C17.945 20.456 17.2844 18.8409 17.293 16.7955C17.2844 15.1335 17.7276 13.6804 18.6225 12.4361C19.5259 11.1832 20.7745 10.2074 22.3683 9.50852C23.9705 8.80966 25.8072 8.46023 27.8782 8.46023C29.9918 8.46023 31.82 8.81392 33.3626 9.52131C34.9052 10.2287 36.0941 11.2259 36.9293 12.5128C37.7731 13.7912 38.1992 15.2869 38.2077 17H31.4066ZM41.2695 35V8.81818H60.1389V14.5455H48.3775V19.0455H59.1673V24.7727H48.3775V29.2727H60.0877V35H41.2695ZM86.3175 8.81818V35H80.3857L70.9254 21.2443H70.772V35H63.6641V8.81818H69.6982L79.005 22.5227H79.2095V8.81818H86.3175ZM99.7536 35H89.6797V8.81818H99.6513C102.344 8.81818 104.671 9.34233 106.631 10.3906C108.6 11.4304 110.117 12.9304 111.183 14.8906C112.256 16.8423 112.793 19.1818 112.793 21.9091C112.793 24.6364 112.261 26.9801 111.195 28.9403C110.13 30.892 108.621 32.392 106.67 33.4403C104.718 34.4801 102.413 35 99.7536 35ZM96.7876 28.9659H99.4979C100.793 28.9659 101.897 28.7571 102.809 28.3395C103.729 27.9219 104.428 27.2017 104.906 26.179C105.391 25.1562 105.634 23.733 105.634 21.9091C105.634 20.0852 105.387 18.6619 104.893 17.6392C104.407 16.6165 103.691 15.8963 102.745 15.4787C101.808 15.0611 100.657 14.8523 99.2933 14.8523H96.7876V28.9659Z" fill="#2C2C2C"/>
</svg>
