<svg width="471" height="480" viewBox="0 0 471 480" fill="none" xmlns="http://www.w3.org/2000/svg">
<path d="M13.5291 29.2983C12.1229 29.2983 10.8693 29.0568 9.76847 28.5739C8.67472 28.0909 7.80469 27.4197 7.15838 26.5604C6.51918 25.6939 6.17116 24.6889 6.11435 23.5455H8.79901C8.85582 24.2486 9.0973 24.8558 9.52344 25.3672C9.94957 25.8714 10.5071 26.2621 11.196 26.5391C11.8849 26.8161 12.6484 26.9545 13.4865 26.9545C14.424 26.9545 15.255 26.7912 15.9794 26.4645C16.7038 26.1378 17.272 25.6832 17.6839 25.1009C18.0959 24.5185 18.3018 23.8438 18.3018 23.0767C18.3018 22.2741 18.103 21.5675 17.7053 20.9567C17.3075 20.3388 16.7251 19.8558 15.9581 19.5078C15.1911 19.1598 14.2536 18.9858 13.1456 18.9858H11.3984V16.642H13.1456C14.0121 16.642 14.772 16.4858 15.4254 16.1733C16.0859 15.8608 16.6009 15.4205 16.9702 14.8523C17.3466 14.2841 17.5348 13.6165 17.5348 12.8494C17.5348 12.1108 17.3714 11.468 17.0447 10.9212C16.718 10.3743 16.2564 9.94815 15.6598 9.64276C15.0703 9.33736 14.3743 9.18466 13.5717 9.18466C12.8189 9.18466 12.1087 9.32315 11.4411 9.60014C10.7805 9.87003 10.2408 10.2642 9.82173 10.7827C9.4027 11.294 9.17543 11.9119 9.13992 12.6364H6.5831C6.62571 11.4929 6.97017 10.4915 7.61648 9.6321C8.26278 8.76562 9.10795 8.09091 10.152 7.60795C11.2031 7.125 12.3572 6.88352 13.6143 6.88352C14.9638 6.88352 16.1214 7.15696 17.0874 7.70383C18.0533 8.24361 18.7955 8.95739 19.3139 9.84517C19.8324 10.733 20.0916 11.6918 20.0916 12.7216C20.0916 13.9503 19.7685 14.9979 19.1222 15.8643C18.483 16.7308 17.6129 17.331 16.5121 17.6648V17.8352C17.8899 18.0625 18.9659 18.6484 19.7401 19.593C20.5142 20.5305 20.9013 21.6918 20.9013 23.0767C20.9013 24.2628 20.5781 25.3281 19.9318 26.2727C19.2926 27.2102 18.419 27.9489 17.3111 28.4886C16.2031 29.0284 14.9425 29.2983 13.5291 29.2983ZM32.375 29.2983C30.7699 29.2983 29.4027 28.8615 28.2734 27.9879C27.1442 27.1072 26.2813 25.8324 25.6847 24.1634C25.0881 22.4872 24.7898 20.4631 24.7898 18.0909C24.7898 15.733 25.0881 13.7195 25.6847 12.0504C26.2884 10.3743 27.1548 9.09588 28.2841 8.2152C29.4205 7.32741 30.7841 6.88352 32.375 6.88352C33.9659 6.88352 35.326 7.32741 36.4553 8.2152C37.5916 9.09588 38.4581 10.3743 39.0547 12.0504C39.6584 13.7195 39.9602 15.733 39.9602 18.0909C39.9602 20.4631 39.6619 22.4872 39.0653 24.1634C38.4688 25.8324 37.6058 27.1072 36.4766 27.9879C35.3473 28.8615 33.9801 29.2983 32.375 29.2983ZM32.375 26.9545C33.9659 26.9545 35.2017 26.1875 36.0824 24.6534C36.9631 23.1193 37.4034 20.9318 37.4034 18.0909C37.4034 16.2017 37.201 14.593 36.7962 13.2649C36.3984 11.9368 35.8232 10.9247 35.0703 10.2287C34.3246 9.53267 33.4261 9.18466 32.375 9.18466C30.7983 9.18466 29.5661 9.96236 28.6783 11.5178C27.7905 13.0661 27.3466 15.2571 27.3466 18.0909C27.3466 19.9801 27.5455 21.5852 27.9432 22.9062C28.3409 24.2273 28.9126 25.2322 29.6584 25.9212C30.4112 26.6101 31.3168 26.9545 32.375 26.9545ZM51.125 29.2983C49.5199 29.2983 48.1527 28.8615 47.0234 27.9879C45.8942 27.1072 45.0313 25.8324 44.4347 24.1634C43.8381 22.4872 43.5398 20.4631 43.5398 18.0909C43.5398 15.733 43.8381 13.7195 44.4347 12.0504C45.0384 10.3743 45.9048 9.09588 47.0341 8.2152C48.1705 7.32741 49.5341 6.88352 51.125 6.88352C52.7159 6.88352 54.076 7.32741 55.2053 8.2152C56.3416 9.09588 57.2081 10.3743 57.8047 12.0504C58.4084 13.7195 58.7102 15.733 58.7102 18.0909C58.7102 20.4631 58.4119 22.4872 57.8153 24.1634C57.2188 25.8324 56.3558 27.1072 55.2266 27.9879C54.0973 28.8615 52.7301 29.2983 51.125 29.2983ZM51.125 26.9545C52.7159 26.9545 53.9517 26.1875 54.8324 24.6534C55.7131 23.1193 56.1534 20.9318 56.1534 18.0909C56.1534 16.2017 55.951 14.593 55.5462 13.2649C55.1484 11.9368 54.5732 10.9247 53.8203 10.2287C53.0746 9.53267 52.1761 9.18466 51.125 9.18466C49.5483 9.18466 48.3161 9.96236 47.4283 11.5178C46.5405 13.0661 46.0966 15.2571 46.0966 18.0909C46.0966 19.9801 46.2955 21.5852 46.6932 22.9062C47.0909 24.2273 47.6626 25.2322 48.4084 25.9212C49.1612 26.6101 50.0668 26.9545 51.125 26.9545Z" fill="white"/>
<path d="M7.59251 103V101.082L14.7942 93.1989C15.6394 92.2756 16.3354 91.473 16.8823 90.7912C17.4292 90.1023 17.834 89.456 18.0968 88.8523C18.3667 88.2415 18.5016 87.6023 18.5016 86.9347C18.5016 86.1676 18.3169 85.5036 17.9476 84.9425C17.5854 84.3814 17.0882 83.9482 16.4561 83.6428C15.824 83.3374 15.1138 83.1847 14.3255 83.1847C13.4874 83.1847 12.7559 83.3587 12.1309 83.7067C11.513 84.0476 11.0336 84.527 10.6926 85.1449C10.3588 85.7628 10.1919 86.4872 10.1919 87.3182H7.67773C7.67773 86.0398 7.97248 84.9176 8.56197 83.9517C9.15146 82.9858 9.95401 82.233 10.9696 81.6932C11.9924 81.1534 13.1394 80.8835 14.4107 80.8835C15.6891 80.8835 16.8219 81.1534 17.8091 81.6932C18.7963 82.233 19.5705 82.9609 20.1316 83.8771C20.6926 84.7933 20.9732 85.8125 20.9732 86.9347C20.9732 87.7372 20.8276 88.522 20.5364 89.2891C20.2523 90.049 19.7551 90.8977 19.0449 91.8352C18.3418 92.7656 17.3652 93.902 16.1152 95.2443L11.2147 100.486V100.656H21.3567V103H7.59251ZM32.5748 103.298C31.3248 103.298 30.199 103.05 29.1976 102.553C28.1962 102.055 27.3936 101.374 26.79 100.507C26.1863 99.6406 25.856 98.6534 25.7992 97.5455H28.356C28.4554 98.5327 28.9029 99.3494 29.6983 99.9957C30.5009 100.635 31.4597 100.955 32.5748 100.955C33.4696 100.955 34.2651 100.745 34.9611 100.326C35.6642 99.907 36.2147 99.3317 36.6124 98.6001C37.0172 97.8615 37.2196 97.027 37.2196 96.0966C37.2196 95.1449 37.0101 94.2962 36.5911 93.5504C36.1792 92.7976 35.611 92.2045 34.8865 91.7713C34.1621 91.3381 33.3347 91.1179 32.4043 91.1108C31.7367 91.1037 31.0513 91.2067 30.3482 91.4197C29.6451 91.6257 29.0662 91.892 28.6117 92.2188L26.1401 91.9205L27.4611 81.1818H38.7963V83.5256H29.677L28.91 89.9602H29.0378C29.4853 89.6051 30.0463 89.3104 30.7211 89.076C31.3958 88.8416 32.0989 88.7244 32.8304 88.7244C34.1657 88.7244 35.3553 89.044 36.3993 89.6832C37.4505 90.3153 38.2743 91.1818 38.8709 92.2827C39.4746 93.3835 39.7765 94.6406 39.7765 96.054C39.7765 97.446 39.464 98.6889 38.839 99.7827C38.2211 100.869 37.3688 101.729 36.2821 102.361C35.1955 102.986 33.9597 103.298 32.5748 103.298ZM51.125 103.298C49.5199 103.298 48.1527 102.862 47.0234 101.988C45.8942 101.107 45.0313 99.8324 44.4347 98.1634C43.8381 96.4872 43.5398 94.4631 43.5398 92.0909C43.5398 89.733 43.8381 87.7195 44.4347 86.0504C45.0384 84.3743 45.9048 83.0959 47.0341 82.2152C48.1705 81.3274 49.5341 80.8835 51.125 80.8835C52.7159 80.8835 54.076 81.3274 55.2053 82.2152C56.3416 83.0959 57.2081 84.3743 57.8047 86.0504C58.4084 87.7195 58.7102 89.733 58.7102 92.0909C58.7102 94.4631 58.4119 96.4872 57.8153 98.1634C57.2188 99.8324 56.3558 101.107 55.2266 101.988C54.0973 102.862 52.7301 103.298 51.125 103.298ZM51.125 100.955C52.7159 100.955 53.9517 100.187 54.8324 98.6534C55.7131 97.1193 56.1534 94.9318 56.1534 92.0909C56.1534 90.2017 55.951 88.593 55.5462 87.2649C55.1484 85.9368 54.5732 84.9247 53.8203 84.2287C53.0746 83.5327 52.1761 83.1847 51.125 83.1847C49.5483 83.1847 48.3161 83.9624 47.4283 85.5178C46.5405 87.0661 46.0966 89.2571 46.0966 92.0909C46.0966 93.9801 46.2955 95.5852 46.6932 96.9062C47.0909 98.2273 47.6626 99.2322 48.4084 99.9212C49.1612 100.61 50.0668 100.955 51.125 100.955Z" fill="white"/>
<path d="M7.09446 177V175.082L14.2962 167.199C15.1413 166.276 15.8374 165.473 16.3842 164.791C16.9311 164.102 17.3359 163.456 17.5987 162.852C17.8686 162.241 18.0036 161.602 18.0036 160.935C18.0036 160.168 17.8189 159.504 17.4496 158.942C17.0874 158.381 16.5902 157.948 15.9581 157.643C15.326 157.337 14.6158 157.185 13.8274 157.185C12.9893 157.185 12.2578 157.359 11.6328 157.707C11.0149 158.048 10.5355 158.527 10.1946 159.145C9.8608 159.763 9.69389 160.487 9.69389 161.318H7.17969C7.17969 160.04 7.47443 158.918 8.06392 157.952C8.65341 156.986 9.45597 156.233 10.4716 155.693C11.4943 155.153 12.6413 154.884 13.9126 154.884C15.1911 154.884 16.3239 155.153 17.3111 155.693C18.2983 156.233 19.0724 156.961 19.6335 157.877C20.1946 158.793 20.4751 159.812 20.4751 160.935C20.4751 161.737 20.3295 162.522 20.0384 163.289C19.7543 164.049 19.2571 164.898 18.5469 165.835C17.8438 166.766 16.8672 167.902 15.6172 169.244L10.7166 174.486V174.656H20.8587V177H7.09446ZM32.375 177.298C30.7699 177.298 29.4027 176.862 28.2734 175.988C27.1442 175.107 26.2813 173.832 25.6847 172.163C25.0881 170.487 24.7898 168.463 24.7898 166.091C24.7898 163.733 25.0881 161.719 25.6847 160.05C26.2884 158.374 27.1548 157.096 28.2841 156.215C29.4205 155.327 30.7841 154.884 32.375 154.884C33.9659 154.884 35.326 155.327 36.4553 156.215C37.5916 157.096 38.4581 158.374 39.0547 160.05C39.6584 161.719 39.9602 163.733 39.9602 166.091C39.9602 168.463 39.6619 170.487 39.0653 172.163C38.4688 173.832 37.6058 175.107 36.4766 175.988C35.3473 176.862 33.9801 177.298 32.375 177.298ZM32.375 174.955C33.9659 174.955 35.2017 174.187 36.0824 172.653C36.9631 171.119 37.4034 168.932 37.4034 166.091C37.4034 164.202 37.201 162.593 36.7962 161.265C36.3984 159.937 35.8232 158.925 35.0703 158.229C34.3246 157.533 33.4261 157.185 32.375 157.185C30.7983 157.185 29.5661 157.962 28.6783 159.518C27.7905 161.066 27.3466 163.257 27.3466 166.091C27.3466 167.98 27.5455 169.585 27.9432 170.906C28.3409 172.227 28.9126 173.232 29.6584 173.921C30.4112 174.61 31.3168 174.955 32.375 174.955ZM51.125 177.298C49.5199 177.298 48.1527 176.862 47.0234 175.988C45.8942 175.107 45.0313 173.832 44.4347 172.163C43.8381 170.487 43.5398 168.463 43.5398 166.091C43.5398 163.733 43.8381 161.719 44.4347 160.05C45.0384 158.374 45.9048 157.096 47.0341 156.215C48.1705 155.327 49.5341 154.884 51.125 154.884C52.7159 154.884 54.076 155.327 55.2053 156.215C56.3416 157.096 57.2081 158.374 57.8047 160.05C58.4084 161.719 58.7102 163.733 58.7102 166.091C58.7102 168.463 58.4119 170.487 57.8153 172.163C57.2188 173.832 56.3558 175.107 55.2266 175.988C54.0973 176.862 52.7301 177.298 51.125 177.298ZM51.125 174.955C52.7159 174.955 53.9517 174.187 54.8324 172.653C55.7131 171.119 56.1534 168.932 56.1534 166.091C56.1534 164.202 55.951 162.593 55.5462 161.265C55.1484 159.937 54.5732 158.925 53.8203 158.229C53.0746 157.533 52.1761 157.185 51.125 157.185C49.5483 157.185 48.3161 157.962 47.4283 159.518C46.5405 161.066 46.0966 163.257 46.0966 166.091C46.0966 167.98 46.2955 169.585 46.6932 170.906C47.0909 172.227 47.6626 173.232 48.4084 173.921C49.1612 174.61 50.0668 174.955 51.125 174.955Z" fill="white"/>
<path d="M19.4817 229.182V251H16.8397V231.952H16.7118L11.3851 235.489V232.804L16.8397 229.182H19.4817ZM32.5748 251.298C31.3248 251.298 30.199 251.05 29.1976 250.553C28.1962 250.055 27.3936 249.374 26.79 248.507C26.1863 247.641 25.856 246.653 25.7992 245.545H28.356C28.4554 246.533 28.9029 247.349 29.6983 247.996C30.5009 248.635 31.4597 248.955 32.5748 248.955C33.4696 248.955 34.2651 248.745 34.9611 248.326C35.6642 247.907 36.2147 247.332 36.6124 246.6C37.0172 245.862 37.2196 245.027 37.2196 244.097C37.2196 243.145 37.0101 242.296 36.5911 241.55C36.1792 240.798 35.611 240.205 34.8865 239.771C34.1621 239.338 33.3347 239.118 32.4043 239.111C31.7367 239.104 31.0513 239.207 30.3482 239.42C29.6451 239.626 29.0662 239.892 28.6117 240.219L26.1401 239.92L27.4611 229.182H38.7963V231.526H29.677L28.91 237.96H29.0378C29.4853 237.605 30.0463 237.31 30.7211 237.076C31.3958 236.842 32.0989 236.724 32.8304 236.724C34.1657 236.724 35.3553 237.044 36.3993 237.683C37.4505 238.315 38.2743 239.182 38.8709 240.283C39.4746 241.384 39.7765 242.641 39.7765 244.054C39.7765 245.446 39.464 246.689 38.839 247.783C38.2211 248.869 37.3688 249.729 36.2821 250.361C35.1955 250.986 33.9597 251.298 32.5748 251.298ZM51.125 251.298C49.5199 251.298 48.1527 250.862 47.0234 249.988C45.8942 249.107 45.0313 247.832 44.4347 246.163C43.8381 244.487 43.5398 242.463 43.5398 240.091C43.5398 237.733 43.8381 235.719 44.4347 234.05C45.0384 232.374 45.9048 231.096 47.0341 230.215C48.1705 229.327 49.5341 228.884 51.125 228.884C52.7159 228.884 54.076 229.327 55.2053 230.215C56.3416 231.096 57.2081 232.374 57.8047 234.05C58.4084 235.719 58.7102 237.733 58.7102 240.091C58.7102 242.463 58.4119 244.487 57.8153 246.163C57.2188 247.832 56.3558 249.107 55.2266 249.988C54.0973 250.862 52.7301 251.298 51.125 251.298ZM51.125 248.955C52.7159 248.955 53.9517 248.187 54.8324 246.653C55.7131 245.119 56.1534 242.932 56.1534 240.091C56.1534 238.202 55.951 236.593 55.5462 235.265C55.1484 233.937 54.5732 232.925 53.8203 232.229C53.0746 231.533 52.1761 231.185 51.125 231.185C49.5483 231.185 48.3161 231.962 47.4283 233.518C46.5405 235.066 46.0966 237.257 46.0966 240.091C46.0966 241.98 46.2955 243.585 46.6932 244.906C47.0909 246.227 47.6626 247.232 48.4084 247.921C49.1612 248.61 50.0668 248.955 51.125 248.955Z" fill="white"/>
<path d="M18.9837 303.182V325H16.3416V305.952H16.2138L10.8871 309.489V306.804L16.3416 303.182H18.9837ZM32.375 325.298C30.7699 325.298 29.4027 324.862 28.2734 323.988C27.1442 323.107 26.2813 321.832 25.6847 320.163C25.0881 318.487 24.7898 316.463 24.7898 314.091C24.7898 311.733 25.0881 309.719 25.6847 308.05C26.2884 306.374 27.1548 305.096 28.2841 304.215C29.4205 303.327 30.7841 302.884 32.375 302.884C33.9659 302.884 35.326 303.327 36.4553 304.215C37.5916 305.096 38.4581 306.374 39.0547 308.05C39.6584 309.719 39.9602 311.733 39.9602 314.091C39.9602 316.463 39.6619 318.487 39.0653 320.163C38.4688 321.832 37.6058 323.107 36.4766 323.988C35.3473 324.862 33.9801 325.298 32.375 325.298ZM32.375 322.955C33.9659 322.955 35.2017 322.187 36.0824 320.653C36.9631 319.119 37.4034 316.932 37.4034 314.091C37.4034 312.202 37.201 310.593 36.7962 309.265C36.3984 307.937 35.8232 306.925 35.0703 306.229C34.3246 305.533 33.4261 305.185 32.375 305.185C30.7983 305.185 29.5661 305.962 28.6783 307.518C27.7905 309.066 27.3466 311.257 27.3466 314.091C27.3466 315.98 27.5455 317.585 27.9432 318.906C28.3409 320.227 28.9126 321.232 29.6584 321.921C30.4112 322.61 31.3168 322.955 32.375 322.955ZM51.125 325.298C49.5199 325.298 48.1527 324.862 47.0234 323.988C45.8942 323.107 45.0313 321.832 44.4347 320.163C43.8381 318.487 43.5398 316.463 43.5398 314.091C43.5398 311.733 43.8381 309.719 44.4347 308.05C45.0384 306.374 45.9048 305.096 47.0341 304.215C48.1705 303.327 49.5341 302.884 51.125 302.884C52.7159 302.884 54.076 303.327 55.2053 304.215C56.3416 305.096 57.2081 306.374 57.8047 308.05C58.4084 309.719 58.7102 311.733 58.7102 314.091C58.7102 316.463 58.4119 318.487 57.8153 320.163C57.2188 321.832 56.3558 323.107 55.2266 323.988C54.0973 324.862 52.7301 325.298 51.125 325.298ZM51.125 322.955C52.7159 322.955 53.9517 322.187 54.8324 320.653C55.7131 319.119 56.1534 316.932 56.1534 314.091C56.1534 312.202 55.951 310.593 55.5462 309.265C55.1484 307.937 54.5732 306.925 53.8203 306.229C53.0746 305.533 52.1761 305.185 51.125 305.185C49.5483 305.185 48.3161 305.962 47.4283 307.518C46.5405 309.066 46.0966 311.257 46.0966 314.091C46.0966 315.98 46.2955 317.585 46.6932 318.906C47.0909 320.227 47.6626 321.232 48.4084 321.921C49.1612 322.61 50.0668 322.955 51.125 322.955Z" fill="white"/>
<path d="M32.5748 399.298C31.3248 399.298 30.199 399.05 29.1976 398.553C28.1962 398.055 27.3936 397.374 26.79 396.507C26.1863 395.641 25.856 394.653 25.7992 393.545H28.356C28.4554 394.533 28.9029 395.349 29.6983 395.996C30.5009 396.635 31.4597 396.955 32.5748 396.955C33.4696 396.955 34.2651 396.745 34.9611 396.326C35.6642 395.907 36.2147 395.332 36.6124 394.6C37.0172 393.862 37.2196 393.027 37.2196 392.097C37.2196 391.145 37.0101 390.296 36.5911 389.55C36.1792 388.798 35.611 388.205 34.8865 387.771C34.1621 387.338 33.3347 387.118 32.4043 387.111C31.7367 387.104 31.0513 387.207 30.3482 387.42C29.6451 387.626 29.0662 387.892 28.6117 388.219L26.1401 387.92L27.4611 377.182H38.7963V379.526H29.677L28.91 385.96H29.0378C29.4853 385.605 30.0463 385.31 30.7211 385.076C31.3958 384.842 32.0989 384.724 32.8304 384.724C34.1657 384.724 35.3553 385.044 36.3993 385.683C37.4505 386.315 38.2743 387.182 38.8709 388.283C39.4746 389.384 39.7765 390.641 39.7765 392.054C39.7765 393.446 39.464 394.689 38.839 395.783C38.2211 396.869 37.3688 397.729 36.2821 398.361C35.1955 398.986 33.9597 399.298 32.5748 399.298ZM51.125 399.298C49.5199 399.298 48.1527 398.862 47.0234 397.988C45.8942 397.107 45.0313 395.832 44.4347 394.163C43.8381 392.487 43.5398 390.463 43.5398 388.091C43.5398 385.733 43.8381 383.719 44.4347 382.05C45.0384 380.374 45.9048 379.096 47.0341 378.215C48.1705 377.327 49.5341 376.884 51.125 376.884C52.7159 376.884 54.076 377.327 55.2053 378.215C56.3416 379.096 57.2081 380.374 57.8047 382.05C58.4084 383.719 58.7102 385.733 58.7102 388.091C58.7102 390.463 58.4119 392.487 57.8153 394.163C57.2188 395.832 56.3558 397.107 55.2266 397.988C54.0973 398.862 52.7301 399.298 51.125 399.298ZM51.125 396.955C52.7159 396.955 53.9517 396.187 54.8324 394.653C55.7131 393.119 56.1534 390.932 56.1534 388.091C56.1534 386.202 55.951 384.593 55.5462 383.265C55.1484 381.937 54.5732 380.925 53.8203 380.229C53.0746 379.533 52.1761 379.185 51.125 379.185C49.5483 379.185 48.3161 379.962 47.4283 381.518C46.5405 383.066 46.0966 385.257 46.0966 388.091C46.0966 389.98 46.2955 391.585 46.6932 392.906C47.0909 394.227 47.6626 395.232 48.4084 395.921C49.1612 396.61 50.0668 396.955 51.125 396.955Z" fill="white"/>
<path d="M51.125 473.298C49.5199 473.298 48.1527 472.862 47.0234 471.988C45.8942 471.107 45.0313 469.832 44.4347 468.163C43.8381 466.487 43.5398 464.463 43.5398 462.091C43.5398 459.733 43.8381 457.719 44.4347 456.05C45.0384 454.374 45.9048 453.096 47.0341 452.215C48.1705 451.327 49.5341 450.884 51.125 450.884C52.7159 450.884 54.076 451.327 55.2053 452.215C56.3416 453.096 57.2081 454.374 57.8047 456.05C58.4084 457.719 58.7102 459.733 58.7102 462.091C58.7102 464.463 58.4119 466.487 57.8153 468.163C57.2188 469.832 56.3558 471.107 55.2266 471.988C54.0973 472.862 52.7301 473.298 51.125 473.298ZM51.125 470.955C52.7159 470.955 53.9517 470.187 54.8324 468.653C55.7131 467.119 56.1534 464.932 56.1534 462.091C56.1534 460.202 55.951 458.593 55.5462 457.265C55.1484 455.937 54.5732 454.925 53.8203 454.229C53.0746 453.533 52.1761 453.185 51.125 453.185C49.5483 453.185 48.3161 453.962 47.4283 455.518C46.5405 457.066 46.0966 459.257 46.0966 462.091C46.0966 463.98 46.2955 465.585 46.6932 466.906C47.0909 468.227 47.6626 469.232 48.4084 469.921C49.1612 470.61 50.0668 470.955 51.125 470.955Z" fill="white"/>
<line x1="70.5" y1="17" x2="470.5" y2="17" stroke="#A6A6A6" stroke-width="2"/>
<line x1="70.5" y1="92" x2="470.5" y2="92" stroke="#A6A6A6" stroke-width="2"/>
<line x1="70.5" y1="167" x2="470.5" y2="167" stroke="#A6A6A6" stroke-width="2"/>
<line x1="70.5" y1="242" x2="470.5" y2="242" stroke="#A6A6A6" stroke-width="2"/>
<line x1="70.5" y1="317" x2="470.5" y2="317" stroke="#A6A6A6" stroke-width="2"/>
<line x1="70.5" y1="392" x2="470.5" y2="392" stroke="#A6A6A6" stroke-width="2"/>
<rect x="73" y="17.5" width="395" height="445" stroke="white" stroke-width="5"/>
</svg>
