<svg width="50" height="87" viewBox="0 0 50 87" fill="none" xmlns="http://www.w3.org/2000/svg">
<path d="M2 55.7178V84.3928C2 84.9451 2.44772 85.3928 3 85.3928H32.2915C32.5334 85.3928 32.7671 85.3052 32.9493 85.1461L47.6578 72.3009C47.8752 72.111 48 71.8364 48 71.5477V42.0357C48 41.4834 47.5523 41.0357 47 41.0357H18.6669C18.425 41.0357 18.1913 41.1234 18.0091 41.2825L2.34221 54.9646C2.12477 55.1545 2 55.4291 2 55.7178Z" stroke="white" stroke-width="3"/>
<line x1="2" y1="55.5" x2="34" y2="55.5" stroke="white" stroke-width="3"/>
<line x1="33.3571" y1="83.75" x2="33.3571" y2="55.8214" stroke="white" stroke-width="3"/>
<line x1="48.432" y1="42.1149" x2="32.0034" y2="56.9007" stroke="white" stroke-width="3"/>
<path d="M19.25 39.3928V35.6428C19.25 34.5383 20.1454 33.6428 21.25 33.6428H45.1786C46.2831 33.6428 47.1786 32.7474 47.1786 31.6428V25.7857C47.1786 24.6811 46.2831 23.7857 45.1786 23.7857H36.5" stroke="white" stroke-width="3" stroke-linecap="round"/>
<path d="M36.2402 24.1571C36.3557 24.3571 36.6444 24.3571 36.7598 24.1571L40.5085 17.6643C40.6239 17.4643 40.4796 17.2143 40.2487 17.2143H32.7514C32.5204 17.2143 32.3761 17.4643 32.4916 17.6643L36.2402 24.1571Z" stroke="white" stroke-width="2"/>
<rect x="29.9286" y="1.60715" width="13.1429" height="14.7857" rx="1" stroke="white" stroke-width="3"/>
</svg>
