<svg width="56" height="53" viewBox="0 0 56 53" fill="none" xmlns="http://www.w3.org/2000/svg">
<path d="M3 22H53H3ZM55.5 40C55.5 46.9036 49.9036 52.5 43 52.5H13C6.09644 52.5 0.5 46.9036 0.5 40H5.5C5.5 44.1421 8.85786 47.5 13 47.5H43C47.1421 47.5 50.5 44.1421 50.5 40H55.5ZM13 52.5C6.09644 52.5 0.5 46.9036 0.5 40V22H5.5V40C5.5 44.1421 8.85786 47.5 13 47.5V52.5ZM55.5 22V40C55.5 46.9036 49.9036 52.5 43 52.5V47.5C47.1421 47.5 50.5 44.1421 50.5 40V22H55.5Z" fill="white"/>
<path d="M26 33C26 34.1046 26.8954 35 28 35C29.1046 35 30 34.1046 30 33H26ZM29.4142 0.585786C28.6332 -0.195262 27.3668 -0.195262 26.5858 0.585786L13.8579 13.3137C13.0768 14.0948 13.0768 15.3611 13.8579 16.1421C14.6389 16.9232 15.9052 16.9232 16.6863 16.1421L28 4.82843L39.3137 16.1421C40.0948 16.9232 41.3611 16.9232 42.1421 16.1421C42.9232 15.3611 42.9232 14.0948 42.1421 13.3137L29.4142 0.585786ZM30 33V2H26L26 33H30Z" fill="white"/>
</svg>
