<svg width="256" height="256" viewBox="0 0 256 256" fill="none" xmlns="http://www.w3.org/2000/svg">
<path d="M71.7427 249.011C63.1489 249.011 55.514 247.537 48.8379 244.589C42.1972 241.606 36.9771 237.505 33.1773 232.285C29.3776 227.064 27.46 221.063 27.4245 214.28H57.2541C57.2896 216.376 57.9288 218.258 59.1717 219.927C60.4501 221.56 62.1901 222.839 64.3918 223.762C66.5935 224.685 69.1149 225.147 71.9558 225.147C74.6901 225.147 77.1049 224.667 79.2001 223.709C81.2952 222.714 82.9288 221.347 84.1006 219.607C85.2725 217.867 85.8407 215.878 85.8052 213.641C85.8407 211.439 85.166 209.486 83.781 207.782C82.4316 206.077 80.5318 204.746 78.0815 203.787C75.6312 202.828 72.808 202.349 69.612 202.349H58.5325V181.894H69.612C72.5595 181.894 75.1518 181.415 77.389 180.456C79.6617 179.497 81.4195 178.165 82.6624 176.461C83.9408 174.756 84.5623 172.803 84.5268 170.601C84.5623 168.471 84.0474 166.589 82.982 164.955C81.9167 163.322 80.4252 162.043 78.5076 161.12C76.6255 160.197 74.4416 159.735 71.9558 159.735C69.2569 159.735 66.8421 160.214 64.7114 161.173C62.6163 162.132 60.965 163.464 59.7576 165.168C58.5502 166.873 57.9288 168.826 57.8933 171.028H29.5552C29.5907 164.351 31.4195 158.457 35.0417 153.343C38.6994 148.229 43.7065 144.216 50.063 141.305C56.4195 138.393 63.7171 136.937 71.9558 136.937C80.0168 136.937 87.1369 138.304 93.3158 141.038C99.5303 143.773 104.378 147.537 107.858 152.331C111.373 157.089 113.113 162.54 113.078 168.684C113.149 174.792 111.054 179.799 106.792 183.705C102.567 187.611 97.2043 189.92 90.7058 190.63V191.482C99.5126 192.441 106.135 195.14 110.574 199.579C115.013 203.982 117.197 209.522 117.126 216.198C117.162 222.59 115.244 228.254 111.373 233.19C107.538 238.126 102.194 241.997 95.34 244.802C88.5218 247.608 80.656 249.011 71.7427 249.011ZM172.111 247.519H130.137V138.428H171.685C182.907 138.428 192.601 140.612 200.769 144.98C208.972 149.312 215.293 155.562 219.732 163.73C224.206 171.862 226.444 181.61 226.444 192.974C226.444 204.337 224.224 214.103 219.785 222.27C215.346 230.403 209.061 236.653 200.929 241.02C192.796 245.353 183.191 247.519 172.111 247.519ZM159.753 222.377H171.046C176.444 222.377 181.042 221.507 184.842 219.767C188.677 218.027 191.589 215.026 193.578 210.765C195.602 206.503 196.614 200.573 196.614 192.974C196.614 185.374 195.584 179.444 193.524 175.182C191.5 170.921 188.517 167.92 184.576 166.18C180.669 164.44 175.875 163.57 170.194 163.57H159.753V222.377Z" fill="#EA580C"/>
<path d="M66 110.652V77.0436C66 75.9391 66.8954 75.0436 68 75.0436H187.674C188.778 75.0436 189.674 74.1482 189.674 73.0436V16C189.674 14.8954 188.778 14 187.674 14H142.387" stroke="#EA580C" stroke-width="25" stroke-linecap="round"/>
</svg>
