<svg width="112" height="112" viewBox="0 0 112 112" fill="none" xmlns="http://www.w3.org/2000/svg">
<circle cx="56" cy="50" r="9" fill="white"/>
<path d="M77.9324 34.2222C79.7646 32.57 79.9272 29.7188 78.0492 28.1189C75.5416 25.9825 72.7306 24.2167 69.7012 22.8829C65.3053 20.9473 60.549 19.9651 55.7459 20.0009C50.9428 20.0368 46.2018 21.09 41.8352 23.0911C38.8261 24.4701 36.0419 26.2777 33.5664 28.4513C31.7126 30.0791 31.9178 32.9276 33.7745 34.5522C35.6312 36.1769 38.4332 35.9505 40.3613 34.4112C41.9523 33.141 43.6965 32.0659 45.5574 31.2131C48.7765 29.7379 52.2717 28.9614 55.8127 28.935C59.3537 28.9085 62.8601 29.6326 66.1009 31.0596C67.9743 31.8845 69.7344 32.9334 71.3442 34.1797C73.2951 35.69 76.1002 35.8744 77.9324 34.2222Z" fill="white"/>
<path d="M94.0147 21.7198C95.9882 19.9402 96.1586 16.8804 94.2162 15.0669C89.6249 10.7803 84.3364 7.28868 78.5667 4.74824C71.3263 1.5602 63.4925 -0.0575554 55.5815 0.00156361C47.6705 0.0606826 39.8618 1.79533 32.6698 5.09123C26.9388 7.71761 21.703 11.2879 17.1763 15.6426C15.2612 17.4849 15.4774 20.5418 17.4772 22.2917C19.4771 24.0417 22.5012 23.8177 24.4488 22.0099C28.0575 18.6602 32.1843 15.8993 36.679 13.8396C42.635 11.11 49.1019 9.67348 55.6534 9.62452C62.205 9.57556 68.6926 10.9153 74.6888 13.5555C79.2137 15.5479 83.3813 18.2467 87.0397 21.5421C89.0141 23.3207 92.0412 23.4994 94.0147 21.7198Z" fill="white"/>
</svg>
